<svg width="512" height="512" viewBox="0 0 512 512" fill="none" xmlns="http://www.w3.org/2000/svg">
<g clip-path="url(#clip0_45_571)">
<path fill-rule="evenodd" clip-rule="evenodd" d="M255.983 76.2034L426.96 162.411L502.513 124.323L379.248 62.1619L255.983 0L180.43 38.0866L255.983 76.1733V76.2034ZM85.0057 162.411L141.377 133.966L312.355 220.173L387.908 182.087L216.93 95.8797L141.377 57.7928L132.718 62.1619L65.8242 95.8797L9.45288 124.323L85.0057 162.411Z" fill="#2261FF"/>
<path fill-rule="evenodd" clip-rule="evenodd" d="M246.53 263.382L75.5529 177.145L0 139.059V215.231V263.382V387.676L75.5529 425.793L123.265 449.838L246.53 512V435.797L161.041 392.708L151.106 387.676L75.5529 349.589V263.382V253.348L170.978 301.469L246.53 339.556V263.382Z" fill="#2261FF"/>
<path fill-rule="evenodd" clip-rule="evenodd" d="M397.395 196.851L321.842 234.937L265.47 263.382V339.556L341.022 301.469L397.395 273.025L436.447 253.348V263.382V292.731V349.589L360.894 387.676L350.959 392.708L265.47 435.797V512L388.735 449.838L436.447 425.793L512 387.676V330.817V263.382V254.614V215.231V139.059L436.447 177.145L397.395 196.851Z" fill="#2261FF"/>
</g>
<defs>
<clipPath id="clip0_45_571">
<rect width="512" height="512" fill="white"/>
</clipPath>
</defs>
</svg>
