<svg width="250" height="74" viewBox="0 0 250 74" fill="none" xmlns="http://www.w3.org/2000/svg">
<g id="Freedom Horizontal Logo Color 1 2" clip-path="url(#clip0_1_2769)">
<g id="Clip path group">
<g id="Group">
<path id="Vector" fill-rule="evenodd" clip-rule="evenodd" d="M31.9778 10.96L53.3366 23.3588L62.7747 17.8809L47.3763 8.94047L31.9778 0L22.5396 5.47783L31.9778 10.9556V10.96ZM10.6191 23.3588L17.6611 19.2678L39.0198 31.6665L48.458 26.1887L27.0993 13.7899L17.6611 8.31206L16.5793 8.94047L8.22289 13.7899L1.18085 17.8809L10.6191 23.3588Z" fill="#2261FF"/>
<path id="Vector_2" fill-rule="evenodd" clip-rule="evenodd" d="M30.797 37.8811L9.43818 25.478L0 20.0001V30.9558V37.8811V55.7577L9.43818 61.2398L15.3985 64.698L30.797 73.6386V62.6788L20.1176 56.4814L18.8764 55.7577L9.43818 50.2798V37.8811V36.4379L21.3588 43.3589L30.797 48.8368V37.8811Z" fill="#2D2D2D"/>
<path id="Vector_3" fill-rule="evenodd" clip-rule="evenodd" d="M49.6431 28.3122L40.205 33.79L33.1629 37.8811V48.8368L42.6012 43.3589L49.6431 39.2679L54.5217 36.4379V37.8811V42.1021V50.2798L45.0835 55.7577L43.8423 56.4814L33.1629 62.6788V73.6386L48.5615 64.698L54.5217 61.2398L63.9598 55.7577V47.5799V37.8811V36.62V30.9558V20.0001L54.5217 25.478L49.6431 28.3122Z" fill="#2D2D2D"/>
<path id="Vector_4" d="M75.0959 22.3187H94.5285V26.6784H80.6986V30.1757H93.8645V34.4228H80.6986V40.8366H75.0959V22.323V22.3187ZM95.8255 40.8323V22.3187H109.379C112.56 22.3273 114.46 22.362 115.09 22.4183C115.715 22.479 116.322 22.687 116.908 23.0467C117.606 23.4714 118.09 24.0608 118.348 24.8062C118.611 25.5559 118.74 26.7304 118.74 28.3295C118.74 29.6773 118.658 30.6697 118.49 31.3025C118.327 31.9352 118.012 32.4423 117.555 32.8192C117.064 33.2267 116.322 33.5083 115.327 33.66C116.499 33.751 117.348 34.089 117.856 34.6785C118.15 35.0294 118.339 35.4542 118.421 35.9612C118.499 36.4596 118.542 37.5127 118.542 39.1118V40.828H113.021V39.8442C113.021 38.8171 112.983 38.0804 112.905 37.647C112.827 37.2093 112.689 36.8756 112.483 36.6373C112.276 36.4206 111.991 36.2863 111.621 36.2255C111.259 36.1649 110.491 36.1389 109.332 36.1389H101.424V40.828H95.8212L95.8255 40.8323ZM101.428 31.5061H109.324C110.69 31.4801 111.509 31.4541 111.772 31.4325C112.034 31.4108 112.259 31.3415 112.448 31.2201C112.694 31.0684 112.862 30.8387 112.957 30.5397C113.051 30.2364 113.103 29.777 113.103 29.1616C113.103 28.5462 113.047 28.1085 112.939 27.8051C112.823 27.5105 112.634 27.2894 112.353 27.1594C112.155 27.0684 111.922 27.0164 111.651 26.9991C111.379 26.9817 110.599 26.9687 109.311 26.9557H101.428V31.5061ZM120.662 22.3187H141.034V26.6784H126.183V29.3436H140.288V33.3957H126.183V36.3946H141.146V40.8366H120.662V22.323V22.3187ZM142.9 22.3187H163.272V26.6784H148.421V29.3436H162.527V33.3957H148.421V36.3946H163.384V40.8366H142.9V22.323V22.3187ZM165.138 40.8323V22.3187H178.412C180.765 22.3187 182.304 22.336 183.032 22.375C183.76 22.414 184.519 22.5093 185.308 22.6697C187.148 23.051 188.35 24.0998 188.906 25.816C189.113 26.4704 189.251 27.1681 189.324 27.9135C189.393 28.6632 189.432 29.7856 189.432 31.2981C189.432 32.9536 189.389 34.2017 189.303 35.0554C189.221 35.9049 189.057 36.6806 188.824 37.374C188.277 39.0035 187.148 40.0046 185.441 40.3859C184.639 40.5679 183.79 40.685 182.881 40.7457C181.976 40.8063 180.489 40.8323 178.425 40.8323H165.138ZM170.659 36.1129H178.463C179.903 36.1129 180.963 36.0652 181.64 35.9699C182.321 35.8789 182.799 35.7098 183.075 35.4759C183.381 35.2158 183.601 34.7998 183.722 34.232C183.847 33.6643 183.911 32.8019 183.911 31.6535C183.911 30.5051 183.855 29.647 183.752 29.0663C183.64 28.4899 183.454 28.0435 183.187 27.7402C182.881 27.4064 182.437 27.1898 181.86 27.0988C181.282 27.0034 180.136 26.9557 178.421 26.9557H170.668V36.1173L170.659 36.1129ZM203.908 22.0673C207.877 22.0673 210.61 22.1626 212.101 22.362C214.251 22.6523 215.566 23.6794 216.053 25.4389C216.384 26.6524 216.548 28.6979 216.548 31.5798C216.548 34.4617 216.384 36.5246 216.053 37.738C215.566 39.4975 214.251 40.5246 212.101 40.815C210.61 41.0143 207.894 41.1097 203.964 41.1097C200.033 41.1097 197.207 41.0143 195.715 40.815C193.565 40.5246 192.251 39.4975 191.764 37.738C191.431 36.5246 191.268 34.4401 191.268 31.4758C191.268 28.5116 191.431 26.6481 191.764 25.4432C192.251 23.6838 193.565 22.6567 195.715 22.3663C197.198 22.167 199.93 22.0717 203.908 22.0717V22.0673ZM203.921 26.8691C200.943 26.8691 199.155 26.9471 198.551 27.0988C197.861 27.2807 197.405 27.6881 197.189 28.3165C196.974 28.9449 196.866 30.193 196.866 32.0695C196.866 33.2049 196.926 34.0241 197.043 34.5267C197.267 35.4715 197.944 36.0089 199.081 36.1476C199.913 36.2559 201.538 36.3079 203.947 36.3079C206.2 36.3079 207.705 36.2646 208.45 36.1866C209.196 36.1042 209.747 35.9222 210.105 35.6405C210.433 35.3848 210.648 35.0165 210.769 34.5224C210.885 34.0284 210.946 33.2223 210.946 32.0999C210.946 30.7694 210.898 29.79 210.812 29.166C210.722 28.5419 210.558 28.0695 210.325 27.7531C210.032 27.3544 209.536 27.1074 208.855 27.0121C208.17 26.9168 206.528 26.8691 203.921 26.8691ZM218.772 22.3187H228.934L234.408 34.3274L239.881 22.3187H249.987V40.8323H244.462L244.596 26.9514H243.682L236.739 40.8323H232.089L225.146 26.9514H224.163L224.297 40.8323H218.772V22.3187Z" fill="#2261FF"/>
<path id="Vector_5" d="M82.112 48.6633H84.3144C84.3317 49.0187 84.336 49.2441 84.336 49.3481C84.336 49.9072 84.2543 50.3448 84.086 50.6568C83.9053 51.0122 83.5433 51.2506 83.013 51.3806C82.4783 51.5063 81.5606 51.5713 80.2506 51.5713C78.8756 51.5713 77.8929 51.5453 77.3113 51.4933C76.7252 51.4413 76.2859 51.3373 75.9882 51.1856C75.7252 51.0469 75.5272 50.8606 75.3979 50.6265C75.2686 50.3925 75.1825 50.0718 75.1436 49.6645C75.1132 49.3351 75.0959 48.737 75.0959 47.8789C75.0959 47.0209 75.1132 46.4315 75.1436 46.0588C75.1782 45.6861 75.2382 45.4 75.3286 45.1921C75.5272 44.7327 75.9363 44.4336 76.5526 44.2993C77.1646 44.165 78.4059 44.0956 80.2723 44.0956C81.203 44.0956 81.8793 44.1173 82.302 44.1606C82.724 44.2039 83.065 44.282 83.315 44.399C83.6423 44.555 83.8707 44.7847 84.0087 45.0924C84.1423 45.4 84.211 45.8508 84.211 46.4445C84.211 46.4748 84.211 46.5961 84.198 46.8042H82C81.987 46.5658 81.9746 46.4055 81.9573 46.3231C81.9356 46.2408 81.8967 46.1758 81.8366 46.1238C81.75 46.0501 81.5347 45.9981 81.1943 45.9635C80.8496 45.9287 80.3323 45.9114 79.6386 45.9114C78.9449 45.9114 78.4746 45.9244 78.2079 45.9548C77.9449 45.9851 77.7549 46.0458 77.6473 46.1325C77.5136 46.2365 77.4233 46.4185 77.3756 46.6698C77.3243 46.9212 77.2983 47.3199 77.2983 47.8703C77.2983 48.4206 77.3199 48.8063 77.3676 49.0317C77.4146 49.2571 77.5006 49.4174 77.6343 49.5171C77.755 49.6124 77.9536 49.6774 78.2246 49.7078C78.492 49.7381 78.9703 49.7554 79.6559 49.7554C80.5006 49.7554 81.0606 49.7424 81.341 49.7121C81.6207 49.6818 81.8106 49.6211 81.9097 49.5258C82.039 49.4044 82.1077 49.1141 82.1163 48.6633H82.112ZM92.8781 44.0999C94.4381 44.0999 95.5068 44.139 96.0928 44.2169C96.9375 44.3296 97.4505 44.7326 97.6442 45.4261C97.7735 45.9028 97.8385 46.7045 97.8385 47.8356C97.8385 48.9667 97.7735 49.7771 97.6442 50.2538C97.4548 50.9429 96.9375 51.346 96.0928 51.4629C95.5068 51.5409 94.4425 51.5799 92.8991 51.5799C91.3564 51.5799 90.2488 51.5409 89.6628 51.4629C88.8181 51.3503 88.3051 50.9472 88.1114 50.2538C87.9821 49.7771 87.9177 48.958 87.9177 47.7966C87.9177 46.6352 87.9821 45.9028 88.1114 45.4304C88.3007 44.7413 88.8181 44.3383 89.6628 44.2213C90.2444 44.1433 91.3175 44.1042 92.8781 44.1042V44.0999ZM92.8824 45.9851C91.7141 45.9851 91.0118 46.0154 90.7748 46.0761C90.5031 46.1455 90.3267 46.3058 90.2401 46.5528C90.1541 46.7999 90.1151 47.2896 90.1151 48.0263C90.1151 48.4727 90.1368 48.7934 90.1844 48.9884C90.2748 49.3567 90.5378 49.5691 90.9858 49.6255C91.3131 49.6688 91.9511 49.6904 92.8948 49.6904C93.7785 49.6904 94.3688 49.6731 94.6621 49.6428C94.9548 49.6081 95.1708 49.5388 95.3125 49.4304C95.4418 49.3307 95.5241 49.1834 95.5712 48.9927C95.6145 48.7977 95.6405 48.4813 95.6405 48.0393C95.6405 47.5149 95.6231 47.1336 95.5885 46.8865C95.5545 46.6395 95.4895 46.4575 95.3991 46.3318C95.2828 46.1758 95.0885 46.0761 94.8218 46.0414C94.5545 46.0024 93.9078 45.9851 92.8868 45.9851H92.8824ZM101.661 51.4629V44.1996H106.871C107.793 44.1996 108.397 44.2083 108.686 44.2213C108.97 44.2343 109.267 44.2733 109.578 44.3383C110.302 44.4856 110.772 44.8974 110.991 45.5734C111.073 45.8291 111.125 46.1021 111.155 46.3968C111.181 46.6915 111.198 47.1336 111.198 47.7273C111.198 48.3773 111.181 48.8671 111.147 49.2007C111.112 49.5344 111.052 49.8378 110.957 50.1108C110.741 50.7479 110.298 51.1422 109.629 51.2939C109.315 51.3633 108.983 51.4109 108.626 51.4369C108.268 51.4586 107.686 51.4716 106.876 51.4716H101.661V51.4629ZM103.829 49.6124H106.889C107.453 49.6124 107.867 49.5951 108.134 49.5561C108.401 49.5214 108.591 49.4564 108.699 49.3611C108.819 49.2614 108.905 49.0967 108.953 48.8714C109.001 48.646 109.026 48.3123 109.026 47.8616C109.026 47.4109 109.005 47.0729 108.962 46.8475C108.918 46.6222 108.845 46.4445 108.738 46.3274C108.617 46.1974 108.444 46.1108 108.216 46.0761C107.988 46.0371 107.54 46.0198 106.867 46.0198H103.824V49.6124H103.829ZM115.017 44.1996H123.011V45.9114H117.184V46.9559H122.718V48.5463H117.184V49.7208H123.054V51.4629H115.017V44.1996ZM136.264 48.6677H138.465C138.483 49.0231 138.487 49.2484 138.487 49.3524C138.487 49.9115 138.405 50.3492 138.237 50.6612C138.056 51.0166 137.694 51.2549 137.164 51.3849C136.63 51.5106 135.712 51.5756 134.402 51.5756C133.027 51.5756 132.044 51.5496 131.462 51.4976C130.876 51.4456 130.437 51.3416 130.139 51.1899C129.876 51.0512 129.678 50.8649 129.549 50.6309C129.42 50.3968 129.334 50.0762 129.295 49.6688C129.264 49.3394 129.247 48.7414 129.247 47.8833C129.247 47.0252 129.264 46.4358 129.295 46.0631C129.329 45.6904 129.389 45.4044 129.48 45.1964C129.678 44.737 130.088 44.438 130.704 44.3036C131.316 44.1693 132.557 44.0999 134.423 44.0999C135.354 44.0999 136.03 44.1216 136.453 44.1649C136.876 44.2083 137.216 44.2863 137.466 44.4033C137.793 44.5593 138.022 44.789 138.16 45.0967C138.293 45.4044 138.362 45.8551 138.362 46.4488C138.362 46.4792 138.362 46.6005 138.349 46.8085H136.152C136.139 46.5701 136.126 46.4098 136.108 46.3274C136.087 46.2451 136.048 46.1801 135.988 46.1281C135.902 46.0544 135.686 46.0024 135.345 45.9678C135.001 45.9331 134.483 45.9158 133.79 45.9158C133.096 45.9158 132.626 45.9287 132.359 45.9591C132.096 45.9895 131.907 46.0501 131.798 46.1368C131.665 46.2408 131.574 46.4228 131.527 46.6742C131.475 46.9255 131.449 47.3242 131.449 47.8746C131.449 48.425 131.471 48.8107 131.519 49.0361C131.566 49.2614 131.652 49.4218 131.786 49.5214C131.907 49.6167 132.105 49.6818 132.376 49.7121C132.643 49.7424 133.122 49.7598 133.807 49.7598C134.652 49.7598 135.212 49.7468 135.492 49.7164C135.772 49.6861 135.962 49.6255 136.061 49.5301C136.19 49.4088 136.259 49.1184 136.268 48.6677H136.264ZM147.029 44.1042C148.589 44.1042 149.658 44.1433 150.244 44.2213C151.089 44.3339 151.602 44.737 151.795 45.4304C151.925 45.9071 151.99 46.7088 151.99 47.84C151.99 48.9711 151.925 49.7815 151.795 50.2581C151.606 50.9473 151.089 51.3503 150.244 51.4673C149.658 51.5453 148.593 51.5843 147.051 51.5843C145.507 51.5843 144.4 51.5453 143.814 51.4673C142.969 51.3546 142.456 50.9516 142.262 50.2581C142.133 49.7815 142.069 48.9623 142.069 47.801C142.069 46.6395 142.133 45.9071 142.262 45.4348C142.452 44.7456 142.969 44.3426 143.814 44.2256C144.395 44.1476 145.469 44.1086 147.029 44.1086V44.1042ZM147.033 45.9895C145.865 45.9895 145.163 46.0198 144.926 46.0805C144.654 46.1498 144.478 46.3101 144.392 46.5572C144.305 46.8042 144.267 47.2939 144.267 48.0306C144.267 48.477 144.288 48.7977 144.335 48.9927C144.426 49.3611 144.689 49.5734 145.137 49.6298C145.465 49.6731 146.102 49.6948 147.046 49.6948C147.929 49.6948 148.52 49.6774 148.813 49.6471C149.106 49.6124 149.322 49.5431 149.464 49.4347C149.593 49.3351 149.675 49.1877 149.723 48.9971C149.765 48.802 149.791 48.4857 149.791 48.0436C149.791 47.5192 149.774 47.1379 149.74 46.8909C149.705 46.6439 149.64 46.4618 149.55 46.3361C149.434 46.1801 149.24 46.0805 148.973 46.0458C148.705 46.0068 148.059 45.9895 147.038 45.9895H147.033ZM155.812 44.2039H159.798L161.949 48.919L164.095 44.2039H168.06V51.4673H165.892L165.944 46.0198H165.587L162.863 51.4673H161.035L158.312 46.0198H157.924L157.975 51.4673H155.808V44.2039H155.812ZM172.02 51.4673V44.2039H176.964C177.942 44.2039 178.576 44.2256 178.856 44.2603C179.571 44.3556 180.054 44.5896 180.308 44.9537C180.558 45.3221 180.688 45.9765 180.688 46.9212C180.688 47.8659 180.584 48.451 180.377 48.8107C180.235 49.0577 180.041 49.2441 179.787 49.3698C179.533 49.4954 179.188 49.5864 178.744 49.6385C178.429 49.6731 177.847 49.6904 176.99 49.6904H174.223V51.4673H172.025H172.02ZM174.218 47.8746H176.968C177.468 47.8746 177.77 47.8616 177.882 47.8529C177.994 47.8399 178.093 47.814 178.179 47.7706C178.291 47.7099 178.369 47.6189 178.412 47.4976C178.455 47.3762 178.477 47.1856 178.477 46.9255C178.477 46.6655 178.451 46.4792 178.399 46.3578C178.347 46.2365 178.252 46.1498 178.119 46.0978C178.02 46.0588 177.636 46.0328 176.968 46.0241H174.218V47.8746ZM184.364 44.2039H186.67V49.6167H191.802V51.4673H184.36V44.2039H184.364ZM195.263 44.2039H197.569V51.4673H195.263V44.2039ZM209.373 51.4673L208.752 50.2365H203.977L203.356 51.4673H200.844L204.675 44.2039H208.093L211.868 51.4673H209.373ZM207.981 48.646L206.589 45.8898H206.149L204.757 48.646H207.981ZM215.148 44.1996H219.005L222.789 49.6255H223.017L222.961 44.1996H225.198V51.4629H221.371L217.574 46.0371H217.337L217.384 51.4629H215.148V44.1996ZM236.028 48.6677H238.23C238.248 49.0231 238.252 49.2484 238.252 49.3524C238.252 49.9115 238.17 50.3492 238.002 50.6612C237.821 51.0166 237.459 51.2549 236.929 51.3849C236.394 51.5106 235.477 51.5756 234.166 51.5756C232.791 51.5756 231.809 51.5496 231.227 51.4976C230.641 51.4456 230.201 51.3416 229.904 51.1899C229.641 51.0512 229.443 50.8649 229.314 50.6309C229.184 50.3968 229.098 50.0762 229.059 49.6688C229.029 49.3394 229.012 48.7414 229.012 47.8833C229.012 47.0252 229.029 46.4358 229.059 46.0631C229.094 45.6904 229.154 45.4044 229.244 45.1964C229.443 44.737 229.852 44.438 230.468 44.3036C231.08 44.1693 232.322 44.0999 234.188 44.0999C235.119 44.0999 235.795 44.1216 236.218 44.1649C236.64 44.2083 236.98 44.2863 237.23 44.4033C237.558 44.5593 237.787 44.789 237.925 45.0967C238.058 45.4044 238.127 45.8551 238.127 46.4488C238.127 46.4792 238.127 46.6005 238.114 46.8085H235.916C235.903 46.5701 235.89 46.4098 235.873 46.3274C235.852 46.2451 235.813 46.1801 235.753 46.1281C235.666 46.0544 235.451 46.0024 235.11 45.9678C234.765 45.9331 234.248 45.9158 233.554 45.9158C232.86 45.9158 232.391 45.9287 232.124 45.9591C231.861 45.9895 231.671 46.0501 231.563 46.1368C231.429 46.2408 231.339 46.4228 231.291 46.6742C231.24 46.9255 231.214 47.3242 231.214 47.8746C231.214 48.425 231.236 48.8107 231.283 49.0361C231.33 49.2614 231.416 49.4218 231.55 49.5214C231.671 49.6167 231.869 49.6818 232.141 49.7121C232.408 49.7424 232.886 49.7598 233.572 49.7598C234.416 49.7598 234.977 49.7468 235.257 49.7164C235.537 49.6861 235.727 49.6255 235.826 49.5301C235.955 49.4088 236.024 49.1184 236.032 48.6677H236.028ZM241.962 44.1996H249.957V45.9114H244.13V46.9559H249.664V48.5463H244.13V49.7208H250V51.4629H241.962V44.1996Z" fill="#2D2D2D"/>
</g>
</g>
</g>
<defs>
<clipPath id="clip0_1_2769">
<rect width="250" height="73.6386" fill="white"/>
</clipPath>
</defs>
</svg>
